<svg width="176" height="66" viewBox="0 0 176 66" fill="none" xmlns="http://www.w3.org/2000/svg">
<g clip-path="url(#clip0_135_1645)">
<path d="M73.016 35.0078V62.7384H65.9636V58.616L65.4884 59.3048C64.6164 60.5618 63.4399 61.5772 62.069 62.2561C60.645 62.9681 58.865 63.3383 56.7485 63.3383C53.6282 63.3383 51.1522 62.4483 49.39 60.6808C47.6278 58.9132 46.72 56.1168 46.72 52.3575V35.0078H54.196V51.156C54.196 54.9972 55.8799 56.9463 59.2032 56.9463C61.1612 56.9463 62.7187 56.2913 63.8454 54.9883C64.9721 53.6854 65.5311 51.8288 65.5311 49.4116V35.0043L73.016 35.0078Z" fill="#1CBDE7"/>
<path d="M86.1987 45.9478H78.7227V62.7403H86.1987V45.9478Z" fill="#1CBDE7"/>
<path d="M86.7985 38.5358C86.7985 39.7569 86.4122 40.727 85.6183 41.5048C84.8245 42.2827 83.7582 42.6654 82.4321 42.6654C81.106 42.6654 80.0487 42.2738 79.2798 41.5066C78.5108 40.7394 78.121 39.7391 78.121 38.5358C78.121 37.3325 78.5126 36.3321 79.2798 35.5632C80.0469 34.7942 81.1078 34.408 82.4321 34.408C83.7564 34.408 84.828 34.796 85.6183 35.565C86.4087 36.3339 86.7985 37.3129 86.7985 38.5358Z" fill="#1CBDE7"/>
<path d="M113.547 23.1104V38.7049L113.08 38.0944C112.172 36.9257 110.987 36.0019 109.632 35.4066C108.192 34.7444 106.508 34.408 104.634 34.408C102.835 34.3931 101.05 34.7337 99.3831 35.4101C97.7993 36.0606 96.3664 37.0301 95.1734 38.2582C93.9363 39.5609 92.9834 41.1066 92.3752 42.7972C91.7077 44.5772 91.3713 46.6224 91.3713 48.8652C91.3713 51.108 91.7077 53.1496 92.3752 54.935C92.9844 56.6245 93.9372 58.1694 95.1734 59.4722C96.3657 60.7011 97.7988 61.6707 99.3831 62.3202C101.05 62.9977 102.835 63.3383 104.634 63.3223C106.667 63.3223 108.456 62.9396 109.956 62.1796C111.382 61.4825 112.601 60.4246 113.491 59.1108L113.968 58.3988V62.7207H121.088V23.1104H113.547ZM111.822 54.7623C110.435 56.2094 108.618 56.9464 106.435 56.9464C104.253 56.9464 102.438 56.2094 101.051 54.7623C99.6643 53.3152 98.9666 51.3376 98.9666 48.8741C98.9666 46.4106 99.6679 44.4241 101.051 42.9858C102.434 41.5476 104.255 40.8035 106.435 40.8035C108.616 40.8035 110.435 41.5369 111.822 42.9858C113.208 44.4347 113.906 46.4141 113.906 48.8741C113.906 51.334 113.207 53.317 111.822 54.7623Z" fill="#1CBDE7"/>
<path d="M153.148 41.6187C152.486 40.1616 151.525 38.8601 150.327 37.7988C149.034 36.6795 147.532 35.8287 145.907 35.2962C144.053 34.6874 142.111 34.3867 140.159 34.4062C138.202 34.3914 136.258 34.7316 134.422 35.4101C132.701 36.0533 131.127 37.0364 129.794 38.3008C128.457 39.5931 127.403 41.149 126.699 42.87C125.931 44.7766 125.55 46.8169 125.578 48.8722C125.578 51.2681 125.992 53.3952 126.824 55.1948C127.59 56.9227 128.726 58.4613 130.152 59.7017C131.597 60.928 133.273 61.8517 135.081 62.418C137.038 63.0385 139.08 63.3484 141.133 63.3365C145.624 63.3365 149.579 62.1421 152.881 59.7765L150.624 54.6554C149.402 55.4313 148.099 56.0706 146.738 56.5618C145.205 57.1014 143.59 57.37 141.964 57.3557C139.472 57.3557 137.456 56.8217 135.955 55.7786C134.454 54.7355 133.52 53.1086 133.233 51.0029L133.192 50.7092H153.168C153.479 50.0887 153.71 49.4306 153.853 48.7512C154.033 48.0028 154.131 47.237 154.145 46.4674C154.162 44.7986 153.822 43.1454 153.148 41.6187ZM146.416 45.7715L146.359 45.9495H133.173L133.235 45.6415C133.529 44.0452 134.396 42.6113 135.674 41.6098C136.955 40.597 138.547 40.0826 140.401 40.0826C142.422 40.0826 143.961 40.5507 144.962 41.4727C145.962 42.3948 146.491 43.6177 146.491 45.0897C146.499 45.3194 146.474 45.549 146.416 45.7715Z" fill="#1CBDE7"/>
<path d="M175.772 34.9171V42.0638C175.314 41.973 174.85 41.8858 174.387 41.8252C173.797 41.7439 173.202 41.7034 172.607 41.7042C171.76 41.6879 170.92 41.8561 170.145 42.1973C169.369 42.5386 168.678 43.0445 168.118 43.68C166.938 44.9865 166.338 46.8947 166.338 49.3529V62.7385H158.862V35.0079H165.918V40.225L166.409 39.1891C167.182 37.5657 168.207 36.3891 169.455 35.6967C170.733 34.9961 172.171 34.6352 173.629 34.6483C174.597 34.6483 175.316 34.7391 175.772 34.9171Z" fill="#1CBDE7"/>
<path d="M23.6618 29.9077C26.7389 29.4083 28.8284 26.5089 28.3289 23.4319C27.8294 20.3549 24.9301 18.2653 21.8531 18.7648C18.776 19.2643 16.6865 22.1636 17.186 25.2406C17.6855 28.3177 20.5848 30.4072 23.6618 29.9077Z" fill="#E36161"/>
<path d="M45.2694 23.7138V22.3325C44.9594 16.4808 42.3821 10.98 38.084 6.99692C33.786 3.01383 28.1053 0.86178 22.247 0.997239C16.3887 1.1327 10.8135 3.54501 6.70418 7.7225C2.59482 11.9 0.274479 17.514 0.235352 23.3738C0.235352 23.4966 0.235352 23.6212 0.235352 23.7458C0.235352 23.7458 0.235352 23.76 0.235352 23.7867C0.270232 24.8977 0.389239 26.0045 0.591352 27.0975C0.593905 27.1111 0.593905 27.125 0.591352 27.1385C1.43151 33.3133 4.07481 48.5928 11.9566 59.6057C13.1857 61.326 14.8082 62.7276 16.6889 63.6936C18.5696 64.6596 20.6539 65.1621 22.7682 65.1591C24.8824 65.1562 26.9653 64.6478 28.8433 63.6766C30.7212 62.7053 32.3398 61.2992 33.5641 59.5754C38.9041 52.0994 41.8357 41.6882 43.4306 35.0114H22.7488V42.4874H33.6691C33.6676 42.4957 33.6676 42.5041 33.6691 42.5123C32.6011 45.5864 31.2572 50.6202 29.5751 53.778C28.9466 54.9587 28.0092 55.9467 26.8631 56.6364C25.717 57.3261 24.4051 57.6916 23.0674 57.694H22.4622C21.1319 57.6947 19.8263 57.3351 18.6839 56.6535C17.5416 55.9718 16.6052 54.9935 15.9741 53.8225C10.7053 43.988 8.80071 31.7611 8.14211 26.7665L7.82883 23.7725C7.84129 23.9398 7.91605 25.0185 8.14211 26.7665C7.96197 25.7928 7.85723 24.8067 7.82883 23.817V23.744C7.82883 23.6194 7.82883 23.4966 7.82883 23.372C7.8668 19.5224 9.38815 15.8358 12.0761 13.0798C14.7641 10.3238 18.4115 8.71075 22.2589 8.57656C26.1064 8.44237 29.8573 9.79737 32.7308 12.3594C35.6042 14.9215 37.3787 18.4931 37.6848 22.3307V23.712L45.2694 23.7138Z" fill="#E36161"/>
</g>
<defs>
<clipPath id="clip0_135_1645">
<rect width="176" height="66" fill="white"/>
</clipPath>
</defs>
</svg>
